<svg width="23" height="30" viewBox="0 0 23 30" fill="none" xmlns="http://www.w3.org/2000/svg">
<path d="M16.0906 5.32765L21.4529 10.6449V0L16.0906 5.32765Z" fill="#4E19E2"/>
<path d="M21.4529 10.638L16.0906 5.32074V15.9657L21.4529 10.638Z" fill="#4E19E2"/>
<path d="M10.7283 10.6518L16.0906 15.9657V5.32074L10.7283 10.6518Z" fill="#4E19E2"/>
<path d="M16.0906 15.9622L10.7283 10.645V21.2899L16.0906 15.9622Z" fill="#4E19E2"/>
<path d="M5.36584 15.9726L10.7282 21.2899V10.645L5.36584 15.9726Z" fill="#4E19E2"/>
<path d="M10.7283 21.2934L16.0906 26.6106V15.9657L10.7283 21.2934Z" fill="#00BBFF"/>
<path d="M21.4529 21.283L16.0906 15.9657V26.6106L21.4529 21.283Z" fill="#00BBFF"/>
<path d="M18.2405 15.9657L21.453 19.1478V12.7733L18.2405 15.9657Z" fill="#4E19E2"/>
<path d="M4.51568 15.1123L9.02439 10.645H0L4.51568 15.1123Z" fill="#00BBFF"/>
<path d="M23 25.0282C23 26.4828 22.4077 27.7992 21.453 28.7597V21.2968C22.4077 22.2573 23 23.5737 23 25.0282Z" fill="#00BBFF"/>
<path d="M21.446 21.2899C21.4495 21.2933 21.4495 21.2933 21.453 21.2968V28.7631C20.9094 29.309 20.2439 29.727 19.5088 30L16.0941 26.6141L21.446 21.2899Z" fill="#00BBFF"/>
</svg>
